<?xml version='1.0' encoding='iso-8859-1'?>
<!DOCTYPE svg PUBLIC '-//W3C//DTD SVG 1.1//EN' 'http://www.w3.org/Graphics/SVG/1.1/DTD/svg11.dtd'>
<svg version="1.1" xmlns="http://www.w3.org/2000/svg" viewBox="0 0 297 297" xmlns:xlink="http://www.w3.org/1999/xlink" enable-background="new 0 0 297 297">
  <g>
    <path fill='#eccb92' d="m232.125,218.595c7.101-6.409 20.157-11.43 29.722-11.43h21.973c3.944,0 7.154-3.209 7.154-7.153v-79.305c0-3.944-3.21-7.153-7.154-7.153h-123.148c-3.944,0-7.153,3.209-7.153,7.153v79.305c0,3.944 3.209,7.153 7.153,7.153h20.707c11.833,0 21.461,9.629 21.461,21.462v16.395l29.285-26.427zm-15.756-82.047c0-3.951 3.203-7.154 7.154-7.154 3.951,0 7.153,3.203 7.153,7.154v33.725c0,3.951-3.202,7.154-7.153,7.154-3.951,0-7.154-3.203-7.154-7.154v-33.725zm2.092,53.192c1.329-1.329 3.179-2.096 5.06-2.096 1.89,0 3.729,0.767 5.059,2.096 1.338,1.338 2.095,3.178 2.095,5.058 0,1.882-0.757,3.731-2.095,5.059-1.329,1.328-3.169,2.095-5.059,2.095-1.881,0-3.73-0.767-5.06-2.095-1.328-1.328-2.095-3.168-2.095-5.059 0-1.88 0.767-3.73 2.095-5.058z"/>
    <path fill='#eccb92' d="m161.571,44.049l61.999,55.196h45.767l-107.818-97.143c-3.108-2.801-7.829-2.803-10.938-0.007l-141.845,127.542c-2.517,2.265-3.38,5.845-2.168,9.007 1.214,3.162 4.248,5.248 7.635,5.248h24.166l112.153-99.844c3.126-2.863 7.923-2.865 11.049,0.001z"/>
    <path fill='#eccb92' d="m263.597,221.474c-6.048,0-17.395,3.69-21.887,7.742l-30.61,27.623c-3.486,3.147-7.078,4.741-10.677,4.741-5.919,0-11.892-4.568-11.892-14.774v-18.179c0-3.944-3.209-7.153-7.153-7.153h-20.707c-11.834,0-21.462-9.628-21.462-21.462v-79.305c0-11.833 9.628-21.462 21.462-21.462h38.201l-42.825-38.079-107.555,95.63v132.027c0,4.516 3.661,8.176 8.176,8.176h198.752c4.515,0 8.176-3.66 8.176-8.176v-67.349z"/>
  </g>
</svg>
